<?xml version="1.0" encoding="iso-8859-1"?>
<!-- Generator: Adobe Illustrator 19.0.0, SVG Export Plug-In . SVG Version: 6.00 Build 0)  -->
<svg version="1.1" id="Capa_1" xmlns="http://www.w3.org/2000/svg" xmlns:xlink="http://www.w3.org/1999/xlink" x="0px" y="0px"
	 viewBox="0 0 512.001 512.001" style="enable-background:new 0 0 512.001 512.001;" xml:space="preserve">
<g>
	<g>
		<path d="M451.827,0.763c-3.736-1.549-8.038-0.692-10.898,2.167L409.6,34.259L378.272,2.93c-1.875-1.875-4.419-2.929-7.071-2.929
			c-2.652,0-5.195,1.054-7.071,2.929L332.8,34.259L301.472,2.93c-1.876-1.875-4.419-2.929-7.071-2.929
			c-2.652,0-5.195,1.054-7.071,2.929L256,34.259L224.671,2.93c-1.876-1.875-4.419-2.929-7.071-2.929
			c-2.652,0-5.195,1.054-7.071,2.929L179.2,34.259L147.871,2.93c-1.876-1.875-4.419-2.929-7.071-2.929
			c-2.652,0-5.196,1.054-7.071,2.929l-31.328,31.328L71.072,2.929c-2.86-2.86-7.162-3.716-10.898-2.167
			c-3.736,1.548-6.173,5.195-6.173,9.239v196.5c0,5.523,4.478,10,10,10c5.522,0,10-4.477,10-10V34.143L95.33,55.472
			c1.876,1.875,4.419,2.929,7.071,2.929s5.195-1.054,7.071-2.929L140.8,24.143l31.33,31.329c1.876,1.875,4.419,2.929,7.071,2.929
			c2.652,0,5.196-1.054,7.071-2.929L217.6,24.143l31.328,31.329c3.907,3.905,10.237,3.905,14.143,0L294.4,24.143l31.328,31.329
			c1.875,1.875,4.419,2.929,7.071,2.929c2.652,0,5.195-1.054,7.071-2.929l31.329-31.329l31.328,31.329
			c1.876,1.875,4.419,2.929,7.071,2.929c2.652,0,5.195-1.054,7.071-2.929l21.329-21.329v443.716l-21.329-21.329
			c-1.876-1.875-4.419-2.929-7.071-2.929c-2.652,0-5.195,1.054-7.071,2.929l-31.328,31.329L339.87,456.53
			c-1.876-1.875-4.419-2.929-7.071-2.929c-2.652,0-5.196,1.054-7.071,2.929L294.4,487.859l-31.329-31.329
			c-3.907-3.905-10.237-3.905-14.143,0l-31.329,31.329l-31.328-31.329c-1.875-1.875-4.419-2.929-7.071-2.929
			s-5.195,1.054-7.071,2.929L140.8,487.859l-31.328-31.329c-1.876-1.875-4.419-2.929-7.071-2.929s-5.195,1.054-7.071,2.929
			l-21.327,21.328V300c0-5.523-4.478-10-10-10c-5.522,0-10,4.477-10,10v202c0,4.045,2.437,7.691,6.173,9.239
			c3.736,1.549,8.038,0.692,10.898-2.167l31.329-31.329l31.328,31.329c1.875,1.875,4.419,2.929,7.071,2.929
			c2.652,0,5.195-1.054,7.071-2.929l31.329-31.329l31.328,31.329c1.876,1.875,4.419,2.929,7.071,2.929s5.195-1.054,7.071-2.929
			l31.329-31.329l31.329,31.329c1.876,1.875,4.419,2.929,7.071,2.929c2.652,0,5.195-1.054,7.071-2.929l31.328-31.329l31.33,31.329
			c1.876,1.875,4.419,2.929,7.071,2.929c2.652,0,5.196-1.054,7.071-2.929l31.328-31.329l31.33,31.329
			c1.913,1.913,4.47,2.929,7.073,2.929c1.288,0,2.588-0.249,3.824-0.76c3.736-1.548,6.173-5.195,6.173-9.239v-492
			C458,5.957,455.563,2.311,451.827,0.763z"/>
	</g>
</g>
<g>
	<g>
		<path d="M256.128,161.402c-12.892,0-23.38-9.104-23.38-20.293c0-11.189,10.488-20.293,23.38-20.293
			c12.892,0,23.38,9.104,23.38,20.293c0,5.523,4.478,10,10,10c5.522,0,10-4.477,10-10c0-19.021-14.267-34.994-33.38-39.201v-9.856
			c0-5.523-4.478-10-10-10c-5.522,0-10,4.477-10,10v9.856c-19.113,4.207-33.38,20.18-33.38,39.201
			c0,22.218,19.46,40.293,43.38,40.293c12.892,0,23.38,9.104,23.38,20.294s-10.488,20.293-23.38,20.293
			c-12.892,0-23.38-9.104-23.38-20.293c0-5.523-4.478-10-10-10c-5.522,0-10,4.477-10,10c0,19.021,14.267,34.994,33.38,39.201v7.99
			c0,5.523,4.478,10,10,10c5.522,0,10-4.477,10-10v-7.99c19.113-4.207,33.38-20.18,33.38-39.201
			C299.508,179.477,280.048,161.402,256.128,161.402z"/>
	</g>
</g>
<g>
	<g>
		<path d="M337.201,403.601c-1.86-1.87-4.44-2.93-7.07-2.93s-5.21,1.06-7.07,2.93c-1.87,1.85-2.93,4.43-2.93,7.07
			c0,2.63,1.06,5.21,2.93,7.07c1.86,1.86,4.44,2.93,7.07,2.93c2.629,0,5.21-1.07,7.07-2.93c1.86-1.86,2.93-4.44,2.93-7.07
			C340.131,408.031,339.06,405.461,337.201,403.601z"/>
	</g>
</g>
<g>
	<g>
		<path d="M286.437,400.667H182.128c-5.522,0-10,4.477-10,10s4.478,10,10,10h104.308c5.523,0,10.001-4.477,10.001-10
			S291.959,400.667,286.437,400.667z"/>
	</g>
</g>
<g>
	<g>
		<path d="M330.128,340.667h-148c-5.522,0-10,4.477-10,10s4.478,10,10,10h148c5.522,0,10-4.477,10-10
			S335.65,340.667,330.128,340.667z"/>
	</g>
</g>
<g>
	<g>
		<path d="M330.128,280.667h-148c-5.522,0-10,4.477-10,10s4.478,10,10,10h148c5.522,0,10-4.477,10-10
			S335.65,280.667,330.128,280.667z"/>
	</g>
</g>
<g>
	<g>
		<path d="M71.07,248.931c-1.859-1.86-4.439-2.93-7.069-2.93s-5.21,1.07-7.07,2.93c-1.861,1.86-2.93,4.44-2.93,7.07
			c0,2.63,1.07,5.21,2.93,7.07c1.86,1.86,4.44,2.93,7.07,2.93s5.21-1.07,7.069-2.93c1.861-1.86,2.931-4.44,2.931-7.07
			C74.001,253.371,72.93,250.791,71.07,248.931z"/>
	</g>
</g>
<g>
</g>
<g>
</g>
<g>
</g>
<g>
</g>
<g>
</g>
<g>
</g>
<g>
</g>
<g>
</g>
<g>
</g>
<g>
</g>
<g>
</g>
<g>
</g>
<g>
</g>
<g>
</g>
<g>
</g>
</svg>
